<?xml version="1.0" standalone="no"?>
<!DOCTYPE svg PUBLIC "-//W3C//DTD SVG 20010904//EN"
 "http://www.w3.org/TR/2001/REC-SVG-20010904/DTD/svg10.dtd">
<svg version="1.0" xmlns="http://www.w3.org/2000/svg"
 width="356.000000pt" height="356.000000pt" viewBox="0 0 356.000000 356.000000"
 preserveAspectRatio="xMidYMid meet">
<metadata>
Created by potrace 1.14, written by Peter Selinger 2001-2017
</metadata>
<g transform="translate(0.000000,356.000000) scale(0.100000,-0.100000)"
fill="#000000" stroke="none">
<path d="M743 3214 c-11 -29 17 -243 42 -322 13 -42 45 -112 71 -156 56 -95
188 -236 264 -280 l55 -32 6 -95 c4 -65 12 -109 27 -142 l22 -49 -27 -46 c-15
-26 -59 -82 -99 -124 -40 -42 -80 -90 -88 -107 l-16 -30 -37 24 c-62 43 -106
51 -153 30 -60 -27 -84 -73 -83 -154 3 -127 71 -271 163 -343 l33 -26 -2 -119
c-2 -103 -7 -132 -37 -231 -49 -156 -59 -142 -48 67 13 270 14 256 -21 256
-28 0 -32 -5 -63 -80 -95 -226 -121 -266 -138 -213 -8 27 -7 180 2 266 l6 62
-35 0 c-20 0 -39 -4 -42 -10 -3 -5 -8 -56 -12 -112 -5 -100 -7 -105 -55 -190
-54 -96 -96 -138 -137 -138 -39 0 -66 23 -89 78 -60 139 -50 365 20 465 36 51
112 27 148 -48 26 -54 53 -58 58 -8 7 69 -49 135 -126 149 -47 9 -132 -35
-172 -89 -109 -147 -84 -395 51 -522 45 -42 52 -45 101 -45 76 0 109 25 170
130 l32 55 7 -35 c8 -37 40 -70 70 -70 45 0 70 24 109 104 22 45 40 77 41 71
0 -5 0 -51 -1 -102 -2 -143 21 -203 76 -203 29 0 48 28 75 109 l22 66 13 -40
c8 -22 21 -52 29 -67 8 -14 16 -50 17 -80 l2 -53 3 50 c3 27 10 53 16 57 7 4
39 8 72 9 33 0 54 3 47 6 -11 4 -10 9 1 26 8 12 22 43 32 70 l18 47 24 -35
c39 -57 108 -72 156 -35 30 24 137 172 137 190 0 7 -8 9 -21 5 -15 -5 -32 2
-59 24 -53 42 -63 20 -15 -29 l38 -39 -36 -48 c-55 -75 -85 -99 -105 -87 -21
14 -40 75 -41 130 -1 37 2 43 28 54 107 44 114 208 9 210 -20 0 -32 8 -43 30
-14 27 -14 30 0 30 26 0 17 27 -12 35 -14 3 -66 3 -115 -1 l-88 -7 0 42 0 42
-37 -3 c-34 -3 -38 -6 -49 -43 -10 -37 -13 -40 -51 -43 -36 -3 -44 1 -62 27
-52 73 -87 249 -59 301 32 60 99 63 181 9 26 -17 51 -28 57 -24 6 4 21 27 34
53 23 45 105 147 112 139 2 -2 -3 -38 -11 -81 -24 -125 -18 -274 15 -360 19
-50 22 -20 6 53 -35 153 -14 319 58 464 l44 89 -21 46 c-15 35 -22 75 -25 155
l-5 107 -71 37 c-137 71 -261 228 -320 403 -26 80 -53 248 -43 275 5 11 20 15
54 15 154 0 413 -88 508 -172 l36 -31 52 16 c173 53 364 57 555 10 62 -15 66
-14 140 10 43 14 117 31 167 38 97 13 324 8 365 -8 22 -9 20 -11 -25 -18 -79
-11 -207 -58 -289 -105 -75 -43 -176 -124 -176 -141 0 -5 29 15 65 45 64 55
142 104 119 75 -7 -8 -24 -52 -38 -99 -15 -47 -36 -100 -47 -118 -28 -48 -23
-52 12 -12 l31 35 -6 -50 c-4 -27 -11 -54 -16 -59 -12 -12 -13 -26 -1 -26 18
0 33 61 29 118 -5 55 14 131 52 214 18 38 165 95 303 116 68 11 67 14 32 -96
-30 -96 -81 -177 -164 -260 -74 -73 -128 -107 -231 -143 l-75 -27 -6 -128 c-3
-71 -11 -148 -18 -170 -13 -41 -13 -44 23 -101 20 -32 50 -94 68 -138 31 -77
32 -86 32 -225 1 -80 -2 -166 -6 -192 -8 -49 4 -67 16 -25 12 40 18 280 8 340
-5 31 -8 57 -6 57 6 0 61 -97 74 -130 21 -54 25 -55 67 -13 44 44 116 83 154
83 68 0 98 -67 79 -179 -36 -212 -197 -355 -317 -281 -22 13 -33 27 -33 43 0
13 -5 28 -11 34 -22 22 -48 1 -75 -64 -17 -38 -40 -74 -58 -88 -17 -13 -44
-50 -61 -81 -24 -45 -40 -62 -75 -80 -86 -44 -141 -21 -65 27 78 49 125 132
125 219 0 67 -22 107 -70 129 l-38 17 29 39 c32 43 36 55 15 55 -7 0 -26 -18
-41 -41 -14 -23 -51 -66 -81 -96 -30 -30 -54 -59 -54 -64 0 -5 -4 -9 -10 -9
-6 0 -10 32 -10 76 l0 76 -32 -7 c-18 -4 -35 -9 -37 -11 -2 -2 -6 -38 -9 -80
l-5 -77 -56 6 c-90 8 -104 18 -181 126 -40 56 -76 101 -81 101 -23 0 -2 -37
87 -156 53 -71 107 -150 120 -176 28 -56 40 -119 26 -144 -9 -17 -11 -16 -18
10 -8 35 -53 116 -63 116 -20 0 -17 -17 10 -64 36 -65 36 -84 2 -97 -22 -8
-30 -6 -50 13 -14 13 -34 41 -45 63 -25 49 -24 48 -37 40 -7 -4 -1 -25 17 -58
15 -29 28 -55 30 -59 2 -4 -10 -3 -27 2 -33 9 -63 -12 -45 -30 12 -12 109 -31
126 -26 7 3 25 7 40 10 15 4 44 20 63 38 31 27 39 29 60 20 16 -8 25 -20 25
-35 0 -13 3 -52 6 -86 l7 -61 -39 -1 c-27 -1 -31 -3 -15 -6 14 -3 47 -2 75 1
l51 7 0 86 0 87 33 7 c25 5 31 4 23 -4 -6 -6 -11 -21 -11 -34 0 -21 5 -23 48
-23 32 0 66 9 98 25 27 14 50 25 50 25 1 0 5 -17 9 -37 11 -61 22 -75 58 -71
26 2 38 12 62 50 17 26 33 47 38 47 4 1 7 -28 7 -64 l0 -65 70 0 c48 0 72 -4
75 -12 2 -7 8 -85 14 -173 9 -126 9 -162 -1 -171 -14 -13 -1340 -108 -1415
-102 -35 3 -39 6 -44 38 l-6 35 -2 -33 c-1 -36 35 -82 64 -82 31 0 1341 90
1392 96 29 3 54 11 56 19 3 7 0 93 -8 191 l-13 179 28 54 27 54 7 -53 c8 -59
30 -120 49 -132 7 -4 22 -8 35 -8 31 0 54 42 83 147 24 91 25 91 49 3 16 -60
67 -110 113 -110 61 0 97 56 113 174 4 26 10 48 13 50 3 2 31 1 62 -3 l57 -6
-24 -80 c-37 -123 -39 -135 -21 -135 16 0 77 171 97 275 22 117 25 117 65 12
32 -87 32 -102 -5 -117 -42 -17 -80 -65 -80 -101 0 -45 39 -79 90 -79 47 0 95
21 110 49 5 11 10 49 10 86 0 62 2 66 26 75 40 16 85 50 78 61 -3 5 -24 -2
-48 -16 -58 -34 -72 -32 -86 13 -16 47 -77 160 -103 190 -38 41 -53 30 -72
-55 -31 -146 -27 -138 -66 -141 -19 -2 -47 1 -61 7 -22 8 -26 16 -31 78 -8 85
-23 130 -47 143 -27 14 -38 12 -60 -10 -37 -37 -19 -134 37 -192 23 -24 25
-32 20 -80 -8 -66 -23 -118 -41 -143 -13 -18 -16 -18 -30 -5 -17 17 -52 149
-61 230 -11 95 -13 100 -43 100 -27 0 -28 -3 -66 -153 -49 -193 -53 -204 -69
-188 -8 9 -12 64 -12 192 l0 179 -27 0 c-34 0 -35 -2 -48 -91 -8 -48 -26 -104
-53 -162 -39 -83 -43 -87 -74 -87 -21 0 -31 4 -29 12 3 7 7 82 10 166 l6 152
-77 1 c-56 0 -72 3 -56 9 12 5 28 21 35 35 l14 26 24 -26 c16 -17 34 -25 57
-25 21 0 36 -6 39 -15 23 -58 201 71 261 189 83 164 68 330 -34 365 -36 13
-45 13 -86 -3 -25 -9 -66 -33 -91 -52 l-45 -34 -21 40 c-11 21 -34 55 -51 74
-17 19 -44 63 -61 98 -16 34 -43 81 -58 103 -28 41 -29 42 -13 86 9 24 18 92
21 151 l4 106 58 21 c212 78 411 322 436 538 l6 50 -83 17 c-186 39 -416 30
-570 -20 l-78 -26 -73 18 c-114 30 -392 27 -511 -4 l-88 -23 -37 32 c-73 64
-275 140 -423 159 -122 15 -178 13 -186 -6z m1323 -1735 c44 -49 11 -244 -42
-244 -10 0 -24 -12 -31 -27 -13 -27 -67 -53 -85 -41 -19 11 -2 148 25 206 26
58 82 127 101 127 7 0 21 -9 32 -21z m-936 -43 c0 -8 -14 -25 -31 -39 -22 -17
-30 -30 -27 -48 3 -23 6 -21 57 29 30 28 58 52 63 52 4 0 17 -14 28 -32 19
-32 19 -33 0 -53 -30 -32 -50 -91 -56 -163 -8 -97 -61 -246 -94 -267 -41 -26
-65 103 -55 294 4 74 10 156 14 181 6 43 8 45 46 51 22 3 43 7 48 8 4 0 7 -5
7 -13z m-200 -16 c0 -5 -7 -7 -15 -4 -8 4 -12 10 -9 15 6 11 24 2 24 -11z
m863 -60 l28 0 -3 -92 c-2 -62 -7 -93 -15 -96 -9 -2 -13 7 -13 25 0 16 -16 62
-35 102 -34 71 -35 73 -13 67 13 -3 36 -6 51 -6z m-480 -73 c-5 -50 -25 -87
-46 -87 -13 0 -3 65 17 113 21 52 36 39 29 -26z m1657 18 c0 -17 -2 -17 -10
-5 -5 8 -10 24 -10 35 0 17 2 17 10 5 5 -8 10 -24 10 -35z m-633 -20 c8 -22
-98 -230 -117 -230 -21 0 -14 96 11 155 34 77 90 116 106 75z m970 -258 c4
-37 1 -49 -17 -67 -19 -19 -24 -20 -43 -7 -36 23 -34 71 3 109 37 37 50 29 57
-35z"/>
<path d="M816 3149 c10 -12 71 -55 134 -97 63 -41 118 -78 123 -82 16 -13 49
-158 51 -226 3 -67 27 -134 48 -134 13 0 9 12 -8 31 -9 10 -18 40 -21 66 -4
46 -3 47 12 28 9 -11 20 -27 25 -35 5 -8 11 -12 15 -9 3 4 -5 24 -19 44 -15
21 -35 70 -47 109 -11 39 -23 80 -26 90 -4 15 4 12 42 -15 47 -34 115 -105
115 -121 0 -4 5 -8 10 -8 20 0 -19 57 -67 100 -26 24 -118 89 -203 145 -86 57
-162 110 -169 119 -7 9 -18 16 -24 16 -5 0 -2 -10 9 -21z"/>
<path d="M1451 2714 c-44 -56 -13 -200 41 -192 12 2 33 19 46 38 19 28 23 44
19 82 -8 91 -62 127 -106 72z m53 -27 c13 -21 -15 -53 -38 -44 -26 10 -31 38
-11 54 22 16 35 13 49 -10z"/>
<path d="M1973 2713 c-12 -18 -18 -46 -18 -84 0 -47 4 -62 24 -83 14 -14 32
-26 42 -26 25 0 55 43 63 90 6 42 -13 107 -37 122 -25 16 -57 8 -74 -19z m51
-19 c12 -12 13 -20 6 -35 -11 -20 -19 -23 -44 -13 -19 7 -21 35 -4 52 16 16
23 15 42 -4z"/>
<path d="M1718 2450 c-44 -8 -68 -26 -68 -50 0 -20 54 -77 82 -86 11 -3 18
-15 18 -31 0 -25 -1 -26 -55 -20 -31 3 -75 15 -99 26 -47 23 -56 25 -56 12 0
-15 101 -61 134 -61 75 0 75 -1 79 -119 l3 -106 2 107 2 107 38 6 c84 14 99
18 135 38 20 11 37 24 37 29 0 11 4 11 -65 -17 -33 -13 -77 -25 -97 -25 -33 0
-38 3 -38 23 0 14 12 30 35 44 41 27 69 67 61 88 -10 28 -88 46 -148 35z"/>
<path d="M2135 2084 c-104 -72 -244 -108 -411 -106 -117 1 -216 19 -292 52
-38 17 -42 18 -31 3 27 -32 126 -89 188 -108 59 -18 64 -18 91 -1 39 23 90 23
129 0 30 -18 34 -18 97 -1 76 20 176 82 244 151 24 25 42 46 40 45 -3 0 -27
-16 -55 -35z"/>
<path d="M2223 983 c15 -2 39 -2 55 0 15 2 2 4 -28 4 -30 0 -43 -2 -27 -4z"/>
<path d="M2083 973 c15 -2 37 -2 50 0 12 2 0 4 -28 4 -27 0 -38 -2 -22 -4z"/>
<path d="M1943 963 c15 -2 37 -2 50 0 12 2 0 4 -28 4 -27 0 -38 -2 -22 -4z"/>
<path d="M1643 943 c15 -2 39 -2 55 0 15 2 2 4 -28 4 -30 0 -43 -2 -27 -4z"/>
<path d="M1493 933 c15 -2 39 -2 55 0 15 2 2 4 -28 4 -30 0 -43 -2 -27 -4z"/>
<path d="M1353 923 c15 -2 39 -2 55 0 15 2 2 4 -28 4 -30 0 -43 -2 -27 -4z"/>
<path d="M1203 913 c15 -2 39 -2 55 0 15 2 2 4 -28 4 -30 0 -43 -2 -27 -4z"/>
<path d="M2238 823 c-13 -3 -18 -15 -18 -44 0 -35 3 -39 24 -39 14 0 28 5 31
10 3 6 -3 10 -14 10 -26 0 -28 17 -3 23 13 4 11 5 -5 6 -31 1 -29 21 2 21 14
0 25 5 25 10 0 10 -12 11 -42 3z"/>
<path d="M2130 780 c0 -38 13 -54 23 -27 4 10 7 10 18 0 19 -19 24 -16 24 15
0 37 -12 52 -41 52 -21 0 -24 -4 -24 -40z m50 10 c0 -5 -7 -10 -15 -10 -8 0
-15 5 -15 10 0 6 7 10 15 10 8 0 15 -4 15 -10z"/>
<path d="M1882 798 c-18 -18 -15 -27 16 -40 26 -11 26 -12 5 -15 -29 -5 -30
-23 -3 -23 32 0 37 30 9 51 -20 16 -21 19 -6 19 10 0 15 5 12 10 -8 13 -18 13
-33 -2z"/>
<path d="M1945 800 c-3 -5 1 -10 9 -10 11 0 16 -9 16 -30 0 -16 5 -30 10 -30
6 0 8 11 4 26 -5 18 -1 29 12 39 18 13 17 14 -13 15 -17 0 -35 -4 -38 -10z"/>
<path d="M2024 784 c-9 -34 15 -59 49 -50 53 13 41 76 -14 76 -22 0 -30 -6
-35 -26z m64 -12 c3 -18 -1 -22 -22 -22 -19 0 -26 5 -26 18 0 39 43 43 48 4z"/>
<path d="M1765 789 c-4 -6 -4 -27 1 -47 4 -22 9 -30 11 -19 3 9 10 17 18 17 7
0 18 7 25 15 10 12 10 18 0 30 -14 17 -46 20 -55 4z m45 -19 c0 -5 -7 -10 -15
-10 -8 0 -15 5 -15 10 0 6 7 10 15 10 8 0 15 -4 15 -10z"/>
<path d="M1619 785 c-1 -3 -2 -11 -3 -17 -2 -19 -36 -22 -36 -4 0 9 -4 16 -10
16 -5 0 -10 -18 -10 -40 0 -22 5 -40 10 -40 6 0 10 9 10 20 0 25 37 27 43 3 3
-10 5 1 6 25 0 23 -1 42 -4 42 -3 0 -6 -2 -6 -5z"/>
<path d="M1660 770 c-16 -30 4 -60 40 -60 23 0 31 5 36 25 4 15 1 32 -6 40
-18 21 -57 19 -70 -5z m60 -6 c11 -12 10 -18 -3 -31 -8 -9 -23 -13 -31 -10
-19 8 -21 43 -3 50 20 9 24 8 37 -9z"/>
<path d="M1405 770 c-3 -5 1 -10 9 -10 11 0 16 -9 16 -30 0 -16 5 -30 11 -30
7 0 10 12 7 30 -3 20 0 30 9 30 7 0 13 5 13 10 0 6 -13 10 -29 10 -17 0 -33
-4 -36 -10z"/>
<path d="M1484 768 c-4 -6 2 -19 14 -29 28 -22 27 -26 0 -32 -16 -4 -13 -5 7
-4 36 2 47 32 16 42 -12 3 -21 11 -21 17 0 5 7 8 15 4 8 -3 15 -1 15 4 0 14
-37 12 -46 -2z"/>
<path d="M1245 759 c-4 -6 -4 -27 1 -47 4 -22 9 -30 11 -19 3 9 10 17 18 17 7
0 18 7 25 15 10 12 10 18 0 30 -14 17 -46 20 -55 4z m45 -19 c0 -5 -7 -10 -15
-10 -8 0 -15 5 -15 10 0 6 7 10 15 10 8 0 15 -4 15 -10z"/>
<path d="M1330 730 c0 -38 2 -40 30 -40 17 0 30 5 30 10 0 6 -9 10 -20 10 -25
0 -26 17 -2 23 13 4 11 5 -5 6 -32 1 -29 19 5 24 25 4 25 4 -5 6 -32 1 -33 0
-33 -39z"/>
<path d="M1003 690 c0 -30 2 -43 4 -27 2 15 2 39 0 55 -2 15 -4 2 -4 -28z"/>
</g>
</svg>
